<svg xmlns="http://www.w3.org/2000/svg" width="1000" height="1000" id="empty" style=""><rect width="1000" height="1000" x="0" y="0" fill="transparent"></rect><g id="icon"><path fill="#ffffff" d="M369.004649566692 481.8280601834804L349.6026495666921 470.6230601834804L363.865649566692 466.6640601834804C366.73964956669204 465.8540601834804 368.74864956669205 463.20606018348036 368.74864956669205 460.2290601834804C368.74864956669205 459.6330601834804 368.6656495666921 459.0310601834804 368.50864956669204 458.4330601834804C367.702649566692 455.5550601834804 365.0546495666921 453.5480601834804 362.073649566692 453.5480601834804C361.472649566692 453.5480601834804 360.86964956669203 453.62906018348036 360.2856495666921 453.7920601834804L333.40264956669205 461.2650601834804L311.88164956669203 448.83606018348036L350.499649566692 438.1040601834804C353.3816495666921 437.3100601834804 355.3866495666921 434.6670601834804 355.3866495666921 431.67506018348035C355.3866495666921 431.3230601834804 355.35364956669207 430.9740601834804 355.29764956669203 430.6310601834804C352.894649566692 428.7990601834804 350.495649566692 426.93406018348037 348.097649566692 425.0430601834804C347.702649566692 425.0800601834804 347.31064956669206 425.1400601834804 346.923649566692 425.2460601834804L295.673649566692 439.4860601834804L283.582649566692 432.5020601834804L283.582649566692 407.3370601834804L295.68164956669204 400.3540601834804L329.201649566692 409.6710601834804C324.245649566692 405.54006018348036 319.27564956669204 401.35006018348037 314.278649566692 397.1320601834804C306.812649566692 390.8280601834804 299.303649566692 384.49206018348036 291.716649566692 378.2810601834804L289.00664956669203 388.7870601834804L276.903649566692 395.7700601834804L255.10564956669205 383.18706018348036L255.10564956669205 369.22306018348036L266.19564956669205 358.3370601834804C262.538649566692 355.64806018348037 258.85364956669207 353.0240601834804 255.13664956669203 350.48006018348036L255.10564956669205 350.5120601834804L255.10564956669205 350.4600601834804C250.70264956669203 347.44406018348036 246.25464956669205 344.54706018348037 241.75864956669204 341.7870601834804L241.75864956669204 350.5100601834804L221.42864956669203 330.55906018348037C215.53864956669204 327.68006018348035 209.55264956669203 325.0860601834804 203.45764956669206 322.83806018348037C201.16564956669203 325.4710601834804 201.26864956669203 329.4720601834804 203.79464956669204 331.95806018348037L241.75764956669204 369.22306018348036L241.75764956669204 383.18706018348036L219.96364956669203 395.7700601834804L207.86064956669202 388.7870601834804L194.57764956669206 337.2880601834804C193.81964956669202 334.3360601834804 191.15964956669205 332.2750601834804 188.11164956669205 332.2750601834804C187.55064956669204 332.2750601834804 186.99064956669204 332.3460601834804 186.44164956669204 332.48806018348034C182.87764956669204 333.41006018348037 180.72964956669205 337.05506018348035 181.64964956669203 340.6200601834804L191.66064956669203 379.43706018348036L170.13864956669204 367.0050601834804L163.17564956669204 339.9880601834804C162.41364956669204 337.0420601834804 159.75764956669204 334.98306018348035 156.70964956669204 334.98306018348035C156.14864956669203 334.98306018348035 155.58864956669203 335.0510601834804 155.03964956669205 335.19406018348036C153.31464956669203 335.6380601834804 151.86164956669205 336.7250601834804 150.95764956669206 338.2590601834804C150.04964956669204 339.7920601834804 149.79664956669205 341.5920601834804 150.24364956669206 343.3270601834804L153.94264956669204 357.6560601834804L134.53264956669204 346.44906018348036C133.51764956669203 345.8630601834804 132.36564956669204 345.5530601834804 131.19664956669203 345.5530601834804C128.82064956669205 345.5530601834804 126.60564956669204 346.83306018348037 125.41764956669203 348.8880601834804C124.52164956669205 350.4400601834804 124.28464956669204 352.2400601834804 124.74664956669204 353.96306018348037C125.20864956669203 355.68406018348037 126.30964956669203 357.12206018348036 127.86164956669204 358.0150601834804L147.26364956669204 369.2140601834804L133.00164956669204 373.1790601834804C129.46464956669203 374.1660601834804 127.38464956669205 377.8510601834804 128.36764956669202 381.39606018348036C129.16464956669205 384.2800601834804 131.80564956669204 386.2890601834804 134.79764956669203 386.2890601834804C135.39764956669205 386.2890601834804 135.99764956669205 386.2090601834804 136.58664956669205 386.04706018348037L163.46464956669203 378.57406018348036L184.98964956669204 390.99706018348036L146.36364956669203 401.7340601834804C144.64664956669205 402.2120601834804 143.21764956669205 403.3250601834804 142.34164956669204 404.8760601834804C141.46564956669204 406.43206018348036 141.24364956669203 408.2310601834804 141.72164956669204 409.9530601834804C142.52364956669203 412.8300601834804 145.17164956669205 414.8400601834804 148.15664956669204 414.8400601834804C148.75664956669203 414.8400601834804 149.35264956669204 414.76106018348037 149.93664956669204 414.59506018348037L201.18664956669204 400.3530601834804L213.28164956669204 407.3280601834804L213.28164956669204 432.5020601834804L201.18664956669204 439.4860601834804L149.94464956669202 425.2460601834804C149.35664956669206 425.0820601834804 148.75664956669203 425.0010601834804 148.16064956669203 425.0010601834804C145.17264956669203 425.0010601834804 142.52364956669203 427.00906018348036 141.71864956669202 429.89106018348036C140.74364956669203 433.44406018348036 142.83564956669204 437.1280601834804 146.37264956669205 438.1040601834804L184.99464956669203 448.83606018348036L163.47164956669204 461.2650601834804L136.58164956669202 453.79006018348036C135.99764956669205 453.62906018348036 135.39664956669205 453.5480601834804 134.79664956669205 453.5480601834804C131.80864956669205 453.5480601834804 129.16364956669204 455.5550601834804 128.36664956669205 458.43706018348036C127.38764956669203 461.9760601834804 129.46364956669203 465.6660601834804 133.00464956669202 466.6640601834804L147.26264956669203 470.6230601834804L127.85664956669204 481.8280601834804C126.30964956669203 482.72306018348036 125.20364956669204 484.1670601834804 124.74164956669205 485.8920601834804C124.28364956669205 487.6130601834804 124.52064956669204 489.4090601834804 125.41664956669203 490.94906018348036C126.60464956669205 493.0060601834804 128.81964956669202 494.2860601834804 131.20364956669204 494.2860601834804C132.36764956669202 494.2860601834804 133.51664956669202 493.9760601834804 134.53164956669204 493.3920601834804L153.94164956669204 482.1850601834804L150.24264956669202 496.5140601834804C149.31864956669205 500.0750601834804 151.47064956669203 503.7240601834804 155.03864956669204 504.64606018348036C155.58764956669205 504.7890601834804 156.14764956669205 504.8590601834804 156.70864956669203 504.8590601834804C159.75564956669206 504.8590601834804 162.41264956669204 502.7980601834804 163.17464956669204 499.85006018348037L170.13764956669203 472.83306018348037L191.66764956669203 460.4020601834804L181.65664956669204 499.2210601834804C181.20664956669202 500.9470601834804 181.45464956669204 502.7460601834804 182.36364956669203 504.2820601834804C183.26764956669206 505.8160601834804 184.71664956669204 506.9070601834804 186.44164956669204 507.3530601834804C186.99064956669204 507.49406018348037 187.55464956669204 507.5660601834804 188.11964956669203 507.5660601834804C191.16264956669204 507.5660601834804 193.82364956669204 505.5050601834804 194.57764956669206 502.55706018348036L207.86864956669206 451.05206018348036L219.95564956669205 444.0670601834804L241.75764956669204 456.6520601834804L241.75764956669204 470.6180601834804L203.79464956669204 507.8810601834804C202.52364956669203 509.1280601834804 201.81364956669205 510.7960601834804 201.80164956669205 512.5800601834803C201.78164956669204 514.3600601834803 202.46064956669204 516.0440601834804 203.70764956669206 517.3130601834804C204.97064956669203 518.6050601834804 206.66864956669204 519.3160601834804 208.47264956669204 519.3160601834804C210.23364956669204 519.3160601834804 211.89064956669205 518.6390601834804 213.15064956669204 517.4060601834803L241.75764956669204 489.3290601834804L241.75764956669204 514.1750601834804L221.84664956669204 533.7230601834804C219.22164956669204 536.3010601834803 219.18164956669204 540.5360601834805 221.75164956669204 543.1610601834805C223.01464956669204 544.4520601834804 224.70464956669204 545.1650601834804 226.51664956669205 545.1650601834804C228.27364956669203 545.1650601834804 229.93464956669203 544.4850601834803 231.19064956669203 543.2520601834804L241.75764956669204 532.8900601834804L241.75764956669204 555.2940601834804C241.75764956669204 558.9750601834803 244.74964956669203 561.9730601834804 248.43264956669205 561.9730601834804C252.11164956669205 561.9730601834804 255.10364956669204 558.9750601834803 255.10364956669204 555.2940601834804L255.10364956669204 532.8880601834803L265.6706495666921 543.2520601834804C266.9256495666921 544.4850601834803 268.58764956669205 545.1650601834804 270.3486495666921 545.1650601834804C272.15264956669205 545.1650601834804 273.846649566692 544.4520601834804 275.11364956669206 543.1650601834804C276.341649566692 541.9100601834804 277.01564956669205 540.2480601834804 277.01564956669205 538.4870601834804C277.01564956669205 536.6790601834804 276.308649566692 534.9860601834804 275.01864956669203 533.7200601834804L255.10364956669204 514.1740601834804L255.10364956669204 489.3280601834804L283.71064956669204 517.4050601834804C284.96964956669206 518.6380601834803 286.62764956669207 519.3150601834805 288.384649566692 519.3150601834805C290.192649566692 519.3150601834805 291.88564956669205 518.6070601834804 293.14864956669203 517.3220601834804C294.384649566692 516.0760601834804 295.06364956669205 514.4170601834803 295.06364956669205 512.6440601834804C295.06364956669205 510.83306018348037 294.356649566692 509.1420601834804 293.06664956669204 507.8770601834804L255.10364956669204 470.6160601834804L255.10364956669204 456.6500601834804L276.9016495666921 444.0650601834804L289.004649566692 451.05006018348035L302.283649566692 502.55906018348037C303.053649566692 505.49906018348037 305.70564956669205 507.5600601834804 308.745649566692 507.5600601834804C309.30664956669204 507.5600601834804 309.870649566692 507.4880601834804 310.415649566692 507.3470601834804C312.144649566692 506.9050601834804 313.59764956669204 505.8160601834804 314.500649566692 504.2800601834804C315.408649566692 502.7450601834804 315.665649566692 500.9430601834804 315.21464956669206 499.20806018348037L305.20364956669204 460.4000601834804L326.721649566692 472.83106018348036L333.692649566692 499.84806018348036C334.45464956669207 502.7960601834804 337.10764956669203 504.85706018348037 340.15064956669204 504.85706018348037C340.711649566692 504.85706018348037 341.275649566692 504.7870601834804 341.8246495666921 504.6440601834804C343.553649566692 504.2000601834804 345.00264956669207 503.10506018348036 345.914649566692 501.56906018348036C346.8146495666921 500.0340601834804 347.06664956669204 498.24206018348036 346.6176495666921 496.51606018348036L342.92664956669205 482.1830601834804L362.336649566692 493.3900601834804C363.346649566692 493.9740601834804 364.499649566692 494.2840601834804 365.66764956669203 494.2840601834804C368.048649566692 494.2840601834804 370.2666495666921 493.00406018348036 371.462649566692 490.93906018348036C372.038649566692 489.9180601834804 372.347649566692 488.7670601834804 372.347649566692 487.6110601834804C372.3486495666921 485.23706018348037 371.0696495666921 483.0220601834804 369.004649566692 481.8280601834804ZM270.2236495666921 432.5020601834804L248.43364956669203 445.08606018348036L226.63564956669205 432.5020601834804L226.63564956669205 407.3370601834804L248.43364956669203 394.75406018348036L270.22764956669204 407.3370601834804L270.2236495666921 432.5020601834804Z " transform="matrix(1.5243770334353324,0,0,1.5243766282098996,-10.696243104077762,-17.878097690345193)"></path><path fill="#e2e791" d="M377.01864956669215 160.5720601834804L352.0876495666921 117.48906018348038L348.8346495666921 167.1580601834804C353.32864956669215 165.53006018348037 357.96164956669213 164.1400601834804 362.7266495666921 163.0270601834804C367.49764956669213 161.91306018348038 372.2696495666921 161.10506018348036 377.01864956669215 160.5720601834804Z " transform="matrix(1.5243770334353324,0,0,1.5243766282098996,-10.696243104077762,-17.878097690345193)"></path><path fill="#e2e791" d="M439.0876495666921 170.0820601834804L439.0586495666921 120.30706018348039L411.3946495666921 161.68606018348038C416.0966495666921 162.52306018348037 420.8056495666921 163.63606018348037 425.48764956669214 165.0570601834804C430.1766495666921 166.47906018348039 434.7166495666921 168.16506018348036 439.0876495666921 170.0820601834804Z " transform="matrix(1.5243770334353324,0,0,1.5243766282098996,-10.696243104077762,-17.878097690345193)"></path><path fill="#e2e791" d="M478.8136495666921 198.21106018348038C482.1616495666921 201.79206018348037 485.2506495666921 205.51806018348037 488.0826495666921 209.36906018348037L512.9496495666922 166.2480601834804L468.30264956669214 188.24206018348036C471.9556495666921 191.32306018348038 475.47064956669215 194.63906018348038 478.8136495666921 198.21106018348038Z " transform="matrix(1.5243770334353324,0,0,1.5243766282098996,-10.696243104077762,-17.878097690345193)"></path><path fill="#e2e791" d="M504.28364956669213 239.70306018348037C505.9116495666921 244.2000601834804 507.2996495666921 248.83006018348038 508.4066495666921 253.5990601834804C509.51364956669215 258.3710601834804 510.3206495666921 263.1420601834804 510.84564956669215 267.89606018348036L553.9496495666922 243.00006018348037L504.28364956669213 239.70306018348037Z " transform="matrix(1.5243770334353324,0,0,1.5243766282098996,-10.696243104077762,-17.878097690345193)"></path><path fill="#e2e791" d="M509.7056495666921 302.2650601834804C508.86264956669214 306.9720601834804 507.7456495666921 311.6740601834804 506.3176495666921 316.3550601834804C504.89664956669213 321.0440601834804 503.20164956669214 325.5780601834804 501.28364956669213 329.9560601834804L551.0586495666921 329.9620601834804L509.7056495666921 302.2650601834804Z " transform="matrix(1.5243770334353324,0,0,1.5243766282098996,-10.696243104077762,-17.878097690345193)"></path><path fill="#e2e791" d="M473.1216495666921 369.6540601834804C469.5376495666921 373.0020601834804 465.80764956669213 376.08106018348036 461.9506495666921 378.9120601834804L505.0496495666921 403.8200601834804L483.0976495666921 359.14606018348036C480.0156495666921 362.7990601834804 476.6906495666921 366.3150601834804 473.1216495666921 369.6540601834804Z " transform="matrix(1.5243770334353324,0,0,1.5243766282098996,-10.696243104077762,-17.878097690345193)"></path><path fill="#e2e791" d="M274.3856495666921 245.61306018348037C275.81664956669204 240.9270601834804 277.5156495666921 236.39806018348037 279.44664956669203 232.0220601834804L229.66564956669205 231.93106018348038L270.9736495666921 259.7000601834804C271.82164956669203 255.00006018348037 272.95264956669206 250.29406018348038 274.3856495666921 245.61306018348037Z " transform="matrix(1.5243770334353324,0,0,1.5243766282098996,-10.696243104077762,-17.878097690345193)"></path><path fill="#e2e791" d="M307.67664956669205 192.37706018348038C311.26464956669207 189.0340601834804 315.0016495666921 185.96006018348038 318.8616495666921 183.13606018348037L275.8046495666921 158.1540601834804L297.68364956669205 202.86506018348038C300.7666495666921 199.21806018348036 304.09464956669206 195.71006018348038 307.67664956669205 192.37706018348038Z " transform="matrix(1.5243770334353324,0,0,1.5243766282098996,-10.696243104077762,-17.878097690345193)"></path><path fill="#e2e791" d="M282.8296495666921 276.4900601834804C312.1016495666921 292.7740601834804 338.80064956669213 316.0000601834804 365.00164956669215 338.81906018348036C383.7486495666921 355.1430601834804 402.0686495666921 371.09306018348036 420.81464956669214 384.2530601834804C475.1206495666921 368.2520601834804 508.1326495666921 312.4320601834804 495.0856495666921 256.60306018348035C481.56464956669214 198.74506018348038 423.6936495666921 162.79906018348038 365.83364956669215 176.3190601834804C317.7366495666921 187.55906018348037 284.81664956669215 229.4440601834804 282.8296495666921 276.4900601834804Z " transform="matrix(1.5243770334353324,0,0,1.5243766282098996,-10.696243104077762,-17.878097690345193)"></path><path fill="#ffffff" d="M105.41764956669203 305.5750601834804C306.288649566692 249.5330601834804 377.84564956669203 577.2510601834804 564.621649566692 418.14106018348036C376.60964956669204 498.40306018348036 311.18064956669207 159.86606018348039 105.41764956669203 305.5750601834804Z " transform="matrix(1.5243770334353324,0,0,1.5243766282098996,-10.696243104077762,-17.878097690345193)"></path><g transform="matrix(3.0487540668706647,0,0,3.048753256419799,-10.696243104077762,-17.878097690345193)"></g></g></svg>